# xmcd CD database file
#
# Track frame offsets:
#	150
#	22350
#	44997
#	73499
#	100095
#	118026
#	136424
#	152557
#	167308
#	184964
#	197414
#
# Disc length: 2913 seconds
#
# Revision: 0
# Processed by: cddbd v1.4PL0 Copyright (c) Steve Scherf et al.
# Submitted via: CDex 1.51
#
DISCID=a10b5f0b
DTITLE=Pedro Guzman y Jibaro Jazz - Feliz Navidad
DYEAR=2003
DGENRE=Jazz
TTITLE0=El Campo y la Ciudad
TTITLE1=Feliz Navidad
TTITLE2=De lejanas tierras
TTITLE3=Cantores de Navidad
TTITLE4=Pastores de Belen
TTITLE5=Arbolito
TTITLE6=Noche de Paz
TTITLE7=Las Navidades
TTITLE8=Los Tres Santos Reyes
TTITLE9=Villancico Yaucano
TTITLE10=Nino del Tambor
EXTD=YEAR: 2003
EXTT0=
EXTT1=
EXTT2=
EXTT3=
EXTT4=
EXTT5=
EXTT6=
EXTT7=
EXTT8=
EXTT9=
EXTT10=
PLAYORDER=
